<?xml version="1.0" encoding="utf-8"?>
<!-- Generator: Adobe Illustrator 24.1.1, SVG Export Plug-In . SVG Version: 6.00 Build 0)  -->
<svg version="1.1" id="Layer_1" xmlns="http://www.w3.org/2000/svg" xmlns:xlink="http://www.w3.org/1999/xlink" x="0px" y="0px"
	 viewBox="0 0 256 224" style="enable-background:new 0 0 256 224;" xml:space="preserve">
<style type="text/css">
	.st0{fill:#FFFFFF;}
	.st1{fill:none;}
	.st2{font-family:'OCRAExtended';}
	.st3{font-size:8px;}
	.st4{letter-spacing:0.9;}
	.st5{letter-spacing:1.9;}
	.st6{fill:#1D71B8;}
	.st7{font-size:6px;}
</style>
<rect class="st0" width="256" height="224"/>
<rect x="15" y="15" class="st1" width="226" height="194"/>
<text transform="matrix(1.0608 0 0 1 15 20.1914)"><tspan x="0" y="0" class="st2 st3">U-N-Squadron</tspan><tspan x="58" y="0" class="st2 st3 st4"> </tspan><tspan x="63.9" y="0" class="st2 st3">is</tspan><tspan x="73.5" y="0" class="st2 st3 st4"> </tspan><tspan x="79.4" y="0" class="st2 st3">a</tspan><tspan x="84.3" y="0" class="st2 st3 st4"> </tspan><tspan x="90.1" y="0" class="st2 st3">shoot’em</tspan><tspan x="128.8" y="0" class="st2 st3 st4"> </tspan><tspan x="134.7" y="0" class="st2 st3">up</tspan><tspan x="144.3" y="0" class="st2 st3 st4"> </tspan><tspan x="150.2" y="0" class="st2 st3">single-player </tspan><tspan x="0" y="9.6" class="st2 st3">game</tspan><tspan x="19.3" y="9.6" class="st2 st3 st5"> </tspan><tspan x="26.2" y="9.6" class="st2 st3">(</tspan><tspan x="31" y="9.6" class="st2 st3 st5"> </tspan><tspan x="37.9" y="9.6" class="st2 st3">horizontal</tspan><tspan x="86.2" y="9.6" class="st2 st3 st5"> </tspan><tspan x="93" y="9.6" class="st2 st3">arcade</tspan><tspan x="122" y="9.6" class="st2 st3 st5"> </tspan><tspan x="128.9" y="9.6" class="st2 st3">scrolling</tspan><tspan x="172.4" y="9.6" class="st2 st3 st5"> </tspan><tspan x="179.2" y="9.6" class="st2 st3">shooter </tspan><tspan x="0" y="19.2" class="st2 st3">game) released by Capcom in 1989.</tspan><tspan x="0" y="66.3" class="st6 st2 st7">Subject</tspan><tspan x="25.4" y="66.3" class="st2 st7">: Project I</tspan><tspan x="0" y="73.5" class="st6 st2 st7">Tutor</tspan><tspan x="18.1" y="73.5" class="st2 st7">: Marc Garrigó</tspan><tspan x="0" y="80.7" class="st6 st2 st7">Degree</tspan><tspan x="21.7" y="80.7" class="st2 st7">: Video Game Design and Development-Barcelona</tspan><tspan x="0" y="87.9" class="st6 st2 st7">Team Members:</tspan><tspan x="0" y="95.1" class="st2 st7">Alejandro Ávila, Bosco Barber, Carles López and Yeray Tarifa</tspan><tspan x="0" y="102.3" class="st6 st2 st7">GitHub Link:</tspan><tspan x="0" y="109.5" class="st2 st7">https://github.com/Omicrxn/U.N.Squadron</tspan><tspan x="14.7" y="143.1" class="st6 st2 st3">Universitat Politècnica de Barcelona / </tspan><tspan x="2.6" y="152.7" class="st6 st2 st3">Centre de la Imatge i Tecnologia Multimèdia </tspan><tspan x="82.4" y="162.3" class="st6 st2 st3">(UPC-CITM)</tspan><tspan x="36.5" y="171.9" class="st6 st2 st3">Developed by B.A.T.L. STUDIOS</tspan><tspan x="96.9" y="181.5" class="st6 st2 st3">2020</tspan></text>
</svg>
